%TF.GenerationSoftware,KiCad,Pcbnew,9.0.6*%
%TF.CreationDate,2025-12-17T11:58:44+01:00*%
%TF.ProjectId,HackPad,4861636b-5061-4642-9e6b-696361645f70,rev?*%
%TF.SameCoordinates,Original*%
%TF.FileFunction,Soldermask,Top*%
%TF.FilePolarity,Negative*%
%FSLAX46Y46*%
G04 Gerber Fmt 4.6, Leading zero omitted, Abs format (unit mm)*
G04 Created by KiCad (PCBNEW 9.0.6) date 2025-12-17 11:58:44*
%MOMM*%
%LPD*%
G01*
G04 APERTURE LIST*
G04 Aperture macros list*
%AMRoundRect*
0 Rectangle with rounded corners*
0 $1 Rounding radius*
0 $2 $3 $4 $5 $6 $7 $8 $9 X,Y pos of 4 corners*
0 Add a 4 corners polygon primitive as box body*
4,1,4,$2,$3,$4,$5,$6,$7,$8,$9,$2,$3,0*
0 Add four circle primitives for the rounded corners*
1,1,$1+$1,$2,$3*
1,1,$1+$1,$4,$5*
1,1,$1+$1,$6,$7*
1,1,$1+$1,$8,$9*
0 Add four rect primitives between the rounded corners*
20,1,$1+$1,$2,$3,$4,$5,0*
20,1,$1+$1,$4,$5,$6,$7,0*
20,1,$1+$1,$6,$7,$8,$9,0*
20,1,$1+$1,$8,$9,$2,$3,0*%
G04 Aperture macros list end*
%ADD10C,1.700000*%
%ADD11C,4.000000*%
%ADD12C,2.200000*%
%ADD13R,1.600000X0.850000*%
%ADD14R,1.700000X1.700000*%
%ADD15O,1.700000X1.700000*%
%ADD16R,2.000000X2.000000*%
%ADD17C,2.000000*%
%ADD18R,3.000000X2.500000*%
%ADD19RoundRect,0.152400X1.063600X0.609600X-1.063600X0.609600X-1.063600X-0.609600X1.063600X-0.609600X0*%
%ADD20C,1.524000*%
%ADD21RoundRect,0.152400X-1.063600X-0.609600X1.063600X-0.609600X1.063600X0.609600X-1.063600X0.609600X0*%
%ADD22RoundRect,0.250000X-0.550000X0.550000X-0.550000X-0.550000X0.550000X-0.550000X0.550000X0.550000X0*%
%ADD23C,1.600000*%
%ADD24RoundRect,0.250000X-0.550000X-0.550000X0.550000X-0.550000X0.550000X0.550000X-0.550000X0.550000X0*%
G04 APERTURE END LIST*
D10*
%TO.C,SW A3*%
X147002500Y-99016250D03*
D11*
X152082500Y-99016250D03*
D10*
X157162500Y-99016250D03*
D12*
X154622500Y-93936250D03*
X148272500Y-96476250D03*
%TD*%
D10*
%TO.C,SW A2*%
X127952500Y-99016250D03*
D11*
X133032500Y-99016250D03*
D10*
X138112500Y-99016250D03*
D12*
X135572500Y-93936250D03*
X129222500Y-96476250D03*
%TD*%
D10*
%TO.C,SW B1*%
X108902500Y-122396250D03*
D11*
X113982500Y-122396250D03*
D10*
X119062500Y-122396250D03*
D12*
X116522500Y-117316250D03*
X110172500Y-119856250D03*
%TD*%
D13*
%TO.C,D7*%
X131282500Y-133427500D03*
X131282500Y-135177500D03*
X134782500Y-135177500D03*
X134782500Y-133427500D03*
%TD*%
D10*
%TO.C,SW B2*%
X127952500Y-122396250D03*
D11*
X133032500Y-122396250D03*
D10*
X138112500Y-122396250D03*
D12*
X135572500Y-117316250D03*
X129222500Y-119856250D03*
%TD*%
D13*
%TO.C,D1*%
X112232500Y-110168750D03*
X112232500Y-111918750D03*
X115732500Y-111918750D03*
X115732500Y-110168750D03*
%TD*%
%TO.C,D3*%
X150332500Y-110047500D03*
X150332500Y-111797500D03*
X153832500Y-111797500D03*
X153832500Y-110047500D03*
%TD*%
D14*
%TO.C,U2*%
X161615000Y-74886250D03*
D15*
X161615000Y-77426250D03*
X161615000Y-79966250D03*
X161615000Y-82506250D03*
%TD*%
D13*
%TO.C,D4*%
X169382500Y-110047500D03*
X169382500Y-111797500D03*
X172882500Y-111797500D03*
X172882500Y-110047500D03*
%TD*%
D16*
%TO.C,SW9*%
X166500000Y-76000000D03*
D17*
X166500000Y-81000000D03*
X166500000Y-78500000D03*
D18*
X174000000Y-72900000D03*
X174000000Y-84100000D03*
D17*
X181000000Y-76000000D03*
X181000000Y-81000000D03*
%TD*%
D13*
%TO.C,D5*%
X169382500Y-133427500D03*
X169382500Y-135177500D03*
X172882500Y-135177500D03*
X172882500Y-133427500D03*
%TD*%
D10*
%TO.C,SW A1*%
X108902500Y-99016250D03*
D11*
X113982500Y-99016250D03*
D10*
X119062500Y-99016250D03*
D12*
X116522500Y-93936250D03*
X110172500Y-96476250D03*
%TD*%
D13*
%TO.C,D8*%
X112232500Y-133427500D03*
X112232500Y-135177500D03*
X115732500Y-135177500D03*
X115732500Y-133427500D03*
%TD*%
D19*
%TO.C,U1*%
X105845000Y-70961250D03*
D20*
X106680000Y-70961250D03*
D19*
X105845000Y-73501250D03*
D20*
X106680000Y-73501250D03*
D19*
X105845000Y-76041250D03*
D20*
X106680000Y-76041250D03*
D19*
X105845000Y-78581250D03*
D20*
X106680000Y-78581250D03*
D19*
X105845000Y-81121250D03*
D20*
X106680000Y-81121250D03*
D19*
X105845000Y-83661250D03*
D20*
X106680000Y-83661250D03*
D19*
X105845000Y-86201250D03*
D20*
X106680000Y-86201250D03*
X121920000Y-86201250D03*
D21*
X122755000Y-86201250D03*
D20*
X121920000Y-83661250D03*
D21*
X122755000Y-83661250D03*
D20*
X121920000Y-81121250D03*
D21*
X122755000Y-81121250D03*
D20*
X121920000Y-78581250D03*
D21*
X122755000Y-78581250D03*
D20*
X121920000Y-76041250D03*
D21*
X122755000Y-76041250D03*
D20*
X121920000Y-73501250D03*
D21*
X122755000Y-73501250D03*
D20*
X121920000Y-70961250D03*
D21*
X122755000Y-70961250D03*
%TD*%
D10*
%TO.C,SW A4*%
X166052500Y-99016250D03*
D11*
X171132500Y-99016250D03*
D10*
X176212500Y-99016250D03*
D12*
X173672500Y-93936250D03*
X167322500Y-96476250D03*
%TD*%
D10*
%TO.C,SW B3*%
X147002500Y-122396250D03*
D11*
X152082500Y-122396250D03*
D10*
X157162500Y-122396250D03*
D12*
X154622500Y-117316250D03*
X148272500Y-119856250D03*
%TD*%
D13*
%TO.C,D6*%
X150332500Y-133427500D03*
X150332500Y-135177500D03*
X153832500Y-135177500D03*
X153832500Y-133427500D03*
%TD*%
%TO.C,D2*%
X131282500Y-110047500D03*
X131282500Y-111797500D03*
X134782500Y-111797500D03*
X134782500Y-110047500D03*
%TD*%
D10*
%TO.C,SW B4*%
X166052500Y-122396250D03*
D11*
X171132500Y-122396250D03*
D10*
X176212500Y-122396250D03*
D12*
X173672500Y-117316250D03*
X167322500Y-119856250D03*
%TD*%
D22*
%TO.C,D15*%
X142875000Y-118586250D03*
D23*
X142875000Y-126206250D03*
%TD*%
D22*
%TO.C,D9*%
X104775000Y-95206250D03*
D23*
X104775000Y-102826250D03*
%TD*%
D22*
%TO.C,D11*%
X142875000Y-95206250D03*
D23*
X142875000Y-102826250D03*
%TD*%
D22*
%TO.C,D12*%
X161925000Y-95206250D03*
D23*
X161925000Y-102826250D03*
%TD*%
D22*
%TO.C,D16*%
X161925000Y-118586250D03*
D23*
X161925000Y-126206250D03*
%TD*%
D22*
%TO.C,D14*%
X123825000Y-118586250D03*
D23*
X123825000Y-126206250D03*
%TD*%
D22*
%TO.C,D10*%
X123825000Y-95206250D03*
D23*
X123825000Y-102826250D03*
%TD*%
D24*
%TO.C,D17*%
X140493750Y-88106250D03*
D23*
X148113750Y-88106250D03*
%TD*%
D22*
%TO.C,D13*%
X104775000Y-118586250D03*
D23*
X104775000Y-126206250D03*
%TD*%
M02*
