%TF.GenerationSoftware,KiCad,Pcbnew,9.0.6*%
%TF.CreationDate,2025-12-17T11:58:43+01:00*%
%TF.ProjectId,HackPad,4861636b-5061-4642-9e6b-696361645f70,rev?*%
%TF.SameCoordinates,Original*%
%TF.FileFunction,Copper,L2,Bot*%
%TF.FilePolarity,Positive*%
%FSLAX46Y46*%
G04 Gerber Fmt 4.6, Leading zero omitted, Abs format (unit mm)*
G04 Created by KiCad (PCBNEW 9.0.6) date 2025-12-17 11:58:43*
%MOMM*%
%LPD*%
G01*
G04 APERTURE LIST*
G04 Aperture macros list*
%AMRoundRect*
0 Rectangle with rounded corners*
0 $1 Rounding radius*
0 $2 $3 $4 $5 $6 $7 $8 $9 X,Y pos of 4 corners*
0 Add a 4 corners polygon primitive as box body*
4,1,4,$2,$3,$4,$5,$6,$7,$8,$9,$2,$3,0*
0 Add four circle primitives for the rounded corners*
1,1,$1+$1,$2,$3*
1,1,$1+$1,$4,$5*
1,1,$1+$1,$6,$7*
1,1,$1+$1,$8,$9*
0 Add four rect primitives between the rounded corners*
20,1,$1+$1,$2,$3,$4,$5,0*
20,1,$1+$1,$4,$5,$6,$7,0*
20,1,$1+$1,$6,$7,$8,$9,0*
20,1,$1+$1,$8,$9,$2,$3,0*%
G04 Aperture macros list end*
%TA.AperFunction,ComponentPad*%
%ADD10C,2.200000*%
%TD*%
%TA.AperFunction,ComponentPad*%
%ADD11R,1.700000X1.700000*%
%TD*%
%TA.AperFunction,ComponentPad*%
%ADD12O,1.700000X1.700000*%
%TD*%
%TA.AperFunction,ComponentPad*%
%ADD13R,2.000000X2.000000*%
%TD*%
%TA.AperFunction,ComponentPad*%
%ADD14C,2.000000*%
%TD*%
%TA.AperFunction,ComponentPad*%
%ADD15R,3.000000X2.500000*%
%TD*%
%TA.AperFunction,ComponentPad*%
%ADD16C,1.524000*%
%TD*%
%TA.AperFunction,ComponentPad*%
%ADD17RoundRect,0.250000X-0.550000X0.550000X-0.550000X-0.550000X0.550000X-0.550000X0.550000X0.550000X0*%
%TD*%
%TA.AperFunction,ComponentPad*%
%ADD18C,1.600000*%
%TD*%
%TA.AperFunction,ComponentPad*%
%ADD19RoundRect,0.250000X-0.550000X-0.550000X0.550000X-0.550000X0.550000X0.550000X-0.550000X0.550000X0*%
%TD*%
%TA.AperFunction,ViaPad*%
%ADD20C,0.800000*%
%TD*%
%TA.AperFunction,Conductor*%
%ADD21C,0.250000*%
%TD*%
G04 APERTURE END LIST*
D10*
%TO.P,SW A3,1,1*%
%TO.N,SW A*%
X154622500Y-93936250D03*
%TO.P,SW A3,2,2*%
%TO.N,Net-(D11-A)*%
X148272500Y-96476250D03*
%TD*%
%TO.P,SW A2,1,1*%
%TO.N,SW A*%
X135572500Y-93936250D03*
%TO.P,SW A2,2,2*%
%TO.N,Net-(D10-A)*%
X129222500Y-96476250D03*
%TD*%
%TO.P,SW B1,1,1*%
%TO.N,SW B*%
X116522500Y-117316250D03*
%TO.P,SW B1,2,2*%
%TO.N,Net-(D13-A)*%
X110172500Y-119856250D03*
%TD*%
%TO.P,SW B2,1,1*%
%TO.N,SW B*%
X135572500Y-117316250D03*
%TO.P,SW B2,2,2*%
%TO.N,Net-(D14-A)*%
X129222500Y-119856250D03*
%TD*%
D11*
%TO.P,U2,1,GND*%
%TO.N,GND*%
X161615000Y-74886250D03*
D12*
%TO.P,U2,2,VCC*%
%TO.N,+5V*%
X161615000Y-77426250D03*
%TO.P,U2,3,SCL*%
%TO.N,SDA*%
X161615000Y-79966250D03*
%TO.P,U2,4,SDA*%
%TO.N,SCL*%
X161615000Y-82506250D03*
%TD*%
D13*
%TO.P,SW9,A,A*%
%TO.N,DIAL A*%
X166500000Y-76000000D03*
D14*
%TO.P,SW9,B,B*%
%TO.N,DIAL B*%
X166500000Y-81000000D03*
%TO.P,SW9,C,C*%
%TO.N,GND*%
X166500000Y-78500000D03*
D15*
%TO.P,SW9,MP*%
%TO.N,N/C*%
X174000000Y-72900000D03*
X174000000Y-84100000D03*
D14*
%TO.P,SW9,S1,S1*%
%TO.N,DIAL S1*%
X181000000Y-76000000D03*
%TO.P,SW9,S2,S2*%
%TO.N,GND*%
X181000000Y-81000000D03*
%TD*%
D10*
%TO.P,SW A1,1,1*%
%TO.N,SW A*%
X116522500Y-93936250D03*
%TO.P,SW A1,2,2*%
%TO.N,Net-(D9-A)*%
X110172500Y-96476250D03*
%TD*%
D16*
%TO.P,U1,1,GPIO26/ADC0/A0*%
%TO.N,LEDs*%
X106680000Y-70961250D03*
%TO.P,U1,2,GPIO27/ADC1/A1*%
%TO.N,SW A*%
X106680000Y-73501250D03*
%TO.P,U1,3,GPIO28/ADC2/A2*%
%TO.N,SW B*%
X106680000Y-76041250D03*
%TO.P,U1,4,GPIO29/ADC3/A3*%
%TO.N,SW 1*%
X106680000Y-78581250D03*
%TO.P,U1,5,GPIO6/SDA*%
%TO.N,SDA*%
X106680000Y-81121250D03*
%TO.P,U1,6,GPIO7/SCL*%
%TO.N,SCL*%
X106680000Y-83661250D03*
%TO.P,U1,7,GPIO0/TX*%
%TO.N,SW 2*%
X106680000Y-86201250D03*
%TO.P,U1,8,GPIO1/RX*%
%TO.N,DIAL B*%
X121920000Y-86201250D03*
%TO.P,U1,9,GPIO2/SCK*%
%TO.N,DIAL A*%
X121920000Y-83661250D03*
%TO.P,U1,10,GPIO4/MISO*%
%TO.N,SW 4*%
X121920000Y-81121250D03*
%TO.P,U1,11,GPIO3/MOSI*%
%TO.N,SW 3*%
X121920000Y-78581250D03*
%TO.P,U1,12,3V3*%
%TO.N,unconnected-(U1-3V3-Pad12)*%
X121920000Y-76041250D03*
%TO.P,U1,13,GND*%
%TO.N,GND*%
X121920000Y-73501250D03*
%TO.P,U1,14,VBUS*%
%TO.N,+5V*%
X121920000Y-70961250D03*
%TD*%
D10*
%TO.P,SW A4,1,1*%
%TO.N,SW A*%
X173672500Y-93936250D03*
%TO.P,SW A4,2,2*%
%TO.N,Net-(D12-A)*%
X167322500Y-96476250D03*
%TD*%
%TO.P,SW B3,1,1*%
%TO.N,SW B*%
X154622500Y-117316250D03*
%TO.P,SW B3,2,2*%
%TO.N,Net-(D15-A)*%
X148272500Y-119856250D03*
%TD*%
%TO.P,SW B4,1,1*%
%TO.N,SW B*%
X173672500Y-117316250D03*
%TO.P,SW B4,2,2*%
%TO.N,Net-(D16-A)*%
X167322500Y-119856250D03*
%TD*%
D17*
%TO.P,D15,1,K*%
%TO.N,SW 3*%
X142875000Y-118586250D03*
D18*
%TO.P,D15,2,A*%
%TO.N,Net-(D15-A)*%
X142875000Y-126206250D03*
%TD*%
D17*
%TO.P,D9,1,K*%
%TO.N,SW 1*%
X104775000Y-95206250D03*
D18*
%TO.P,D9,2,A*%
%TO.N,Net-(D9-A)*%
X104775000Y-102826250D03*
%TD*%
D17*
%TO.P,D11,1,K*%
%TO.N,SW 3*%
X142875000Y-95206250D03*
D18*
%TO.P,D11,2,A*%
%TO.N,Net-(D11-A)*%
X142875000Y-102826250D03*
%TD*%
D17*
%TO.P,D12,1,K*%
%TO.N,SW 4*%
X161925000Y-95206250D03*
D18*
%TO.P,D12,2,A*%
%TO.N,Net-(D12-A)*%
X161925000Y-102826250D03*
%TD*%
D17*
%TO.P,D16,1,K*%
%TO.N,SW 4*%
X161925000Y-118586250D03*
D18*
%TO.P,D16,2,A*%
%TO.N,Net-(D16-A)*%
X161925000Y-126206250D03*
%TD*%
D17*
%TO.P,D14,1,K*%
%TO.N,SW 2*%
X123825000Y-118586250D03*
D18*
%TO.P,D14,2,A*%
%TO.N,Net-(D14-A)*%
X123825000Y-126206250D03*
%TD*%
D17*
%TO.P,D10,1,K*%
%TO.N,SW 2*%
X123825000Y-95206250D03*
D18*
%TO.P,D10,2,A*%
%TO.N,Net-(D10-A)*%
X123825000Y-102826250D03*
%TD*%
D19*
%TO.P,D17,1,K*%
%TO.N,SW 1*%
X140493750Y-88106250D03*
D18*
%TO.P,D17,2,A*%
%TO.N,DIAL S1*%
X148113750Y-88106250D03*
%TD*%
D17*
%TO.P,D13,1,K*%
%TO.N,SW 1*%
X104775000Y-118586250D03*
D18*
%TO.P,D13,2,A*%
%TO.N,Net-(D13-A)*%
X104775000Y-126206250D03*
%TD*%
D20*
%TO.N,+5V*%
X156500000Y-85000000D03*
X139500000Y-119500000D03*
X157500000Y-92500000D03*
X153500000Y-74500000D03*
X138000000Y-111000000D03*
X123000000Y-110000000D03*
X171000000Y-110275000D03*
X142000000Y-110500000D03*
X158000000Y-110021500D03*
%TO.N,LEDs*%
X118500000Y-111944750D03*
%TO.N,GND*%
X176225000Y-112000000D03*
X166500000Y-112000000D03*
%TO.N,SW 1*%
X112500000Y-94000000D03*
X107000000Y-100500000D03*
%TO.N,SW 2*%
X121500000Y-101500000D03*
%TO.N,SW 3*%
X141000000Y-106500000D03*
X120000000Y-89500000D03*
X120000000Y-84000000D03*
%TO.N,SW 4*%
X151500000Y-89500000D03*
X152500000Y-81500000D03*
X163500000Y-118500000D03*
X153500000Y-83500000D03*
%TO.N,DIAL A*%
X156000000Y-72776250D03*
%TO.N,SDA*%
X113500000Y-78000000D03*
X111500000Y-80000000D03*
%TO.N,SCL*%
X114000000Y-82500000D03*
X115500000Y-80500000D03*
%TD*%
D21*
%TO.N,+5V*%
X158500000Y-109521500D02*
X158000000Y-110021500D01*
X142225000Y-110275000D02*
X142000000Y-110500000D01*
X156500000Y-81416250D02*
X156500000Y-85000000D01*
X159500000Y-110275000D02*
X142225000Y-110275000D01*
X158253500Y-110275000D02*
X158000000Y-110021500D01*
X157500000Y-92500000D02*
X158500000Y-93500000D01*
X138000000Y-111000000D02*
X137000000Y-110000000D01*
X156500000Y-81416250D02*
X157625000Y-81416250D01*
X139500000Y-112500000D02*
X138000000Y-111000000D01*
X159500000Y-110275000D02*
X158253500Y-110275000D01*
X171000000Y-110275000D02*
X159500000Y-110275000D01*
X139500000Y-119500000D02*
X139500000Y-112500000D01*
X137000000Y-110000000D02*
X123000000Y-110000000D01*
X149961250Y-70961250D02*
X121920000Y-70961250D01*
X158500000Y-93500000D02*
X158500000Y-109521500D01*
X153500000Y-74500000D02*
X149961250Y-70961250D01*
X157625000Y-81416250D02*
X161615000Y-77426250D01*
%TO.N,LEDs*%
X116358500Y-98032079D02*
X113052421Y-94726000D01*
X116358500Y-109803250D02*
X116358500Y-98032079D01*
X102000000Y-71000000D02*
X102038750Y-70961250D01*
X102000000Y-84526720D02*
X102000000Y-71000000D01*
X118500000Y-111944750D02*
X116358500Y-109803250D01*
X112199280Y-94726000D02*
X102000000Y-84526720D01*
X102038750Y-70961250D02*
X106680000Y-70961250D01*
X113052421Y-94726000D02*
X112199280Y-94726000D01*
%TO.N,GND*%
X176225000Y-112000000D02*
X166500000Y-112000000D01*
%TO.N,SW 1*%
X118393750Y-88106250D02*
X140493750Y-88106250D01*
X112500000Y-94000000D02*
X118393750Y-88106250D01*
X118393750Y-88106250D02*
X108868750Y-78581250D01*
X108868750Y-78581250D02*
X106680000Y-78581250D01*
X107000000Y-116361250D02*
X104775000Y-118586250D01*
X107000000Y-100500000D02*
X107000000Y-116361250D01*
%TO.N,SW 2*%
X121500000Y-101500000D02*
X121500000Y-116261250D01*
X121500000Y-116261250D02*
X123825000Y-118586250D01*
%TO.N,SW 3*%
X142875000Y-95206250D02*
X137168750Y-89500000D01*
X142086250Y-118586250D02*
X142875000Y-118586250D01*
X137168750Y-89500000D02*
X120000000Y-89500000D01*
X141000000Y-117500000D02*
X142086250Y-118586250D01*
X141000000Y-106500000D02*
X141000000Y-117500000D01*
X120000000Y-84000000D02*
X120000000Y-80501250D01*
X120000000Y-80501250D02*
X121920000Y-78581250D01*
%TO.N,SW 4*%
X153500000Y-82500000D02*
X152500000Y-81500000D01*
X153000000Y-91000000D02*
X151500000Y-89500000D01*
X153500000Y-83500000D02*
X153500000Y-82500000D01*
X168000000Y-114000000D02*
X177000000Y-114000000D01*
X177000000Y-114000000D02*
X177000000Y-111748280D01*
X177000000Y-111748280D02*
X161925000Y-96673280D01*
X163500000Y-118500000D02*
X168000000Y-114000000D01*
X161925000Y-92425000D02*
X160500000Y-91000000D01*
X161925000Y-95206250D02*
X161925000Y-92425000D01*
X161925000Y-96673280D02*
X161925000Y-95206250D01*
X160500000Y-91000000D02*
X153000000Y-91000000D01*
%TO.N,DIAL S1*%
X164148000Y-88106250D02*
X176291750Y-75962500D01*
X176291750Y-75962500D02*
X178593750Y-75962500D01*
X178631250Y-76000000D02*
X181000000Y-76000000D01*
X148113750Y-88106250D02*
X164148000Y-88106250D01*
X178593750Y-75962500D02*
X178631250Y-76000000D01*
%TO.N,DIAL B*%
X164298750Y-86201250D02*
X121920000Y-86201250D01*
X166500000Y-81000000D02*
X166500000Y-84000000D01*
X166500000Y-84000000D02*
X164298750Y-86201250D01*
%TO.N,DIAL A*%
X156000000Y-72776250D02*
X156000000Y-76500000D01*
X156000000Y-76500000D02*
X148838750Y-83661250D01*
X148838750Y-83661250D02*
X121920000Y-83661250D01*
%TO.N,SDA*%
X113500000Y-78000000D02*
X111500000Y-80000000D01*
%TO.N,SCL*%
X114000000Y-82000000D02*
X114000000Y-82500000D01*
X115500000Y-80500000D02*
X114000000Y-82000000D01*
%TD*%
M02*
