%TF.GenerationSoftware,KiCad,Pcbnew,9.0.6*%
%TF.CreationDate,2025-12-17T11:58:43+01:00*%
%TF.ProjectId,HackPad,4861636b-5061-4642-9e6b-696361645f70,rev?*%
%TF.SameCoordinates,Original*%
%TF.FileFunction,Copper,L1,Top*%
%TF.FilePolarity,Positive*%
%FSLAX46Y46*%
G04 Gerber Fmt 4.6, Leading zero omitted, Abs format (unit mm)*
G04 Created by KiCad (PCBNEW 9.0.6) date 2025-12-17 11:58:43*
%MOMM*%
%LPD*%
G01*
G04 APERTURE LIST*
G04 Aperture macros list*
%AMRoundRect*
0 Rectangle with rounded corners*
0 $1 Rounding radius*
0 $2 $3 $4 $5 $6 $7 $8 $9 X,Y pos of 4 corners*
0 Add a 4 corners polygon primitive as box body*
4,1,4,$2,$3,$4,$5,$6,$7,$8,$9,$2,$3,0*
0 Add four circle primitives for the rounded corners*
1,1,$1+$1,$2,$3*
1,1,$1+$1,$4,$5*
1,1,$1+$1,$6,$7*
1,1,$1+$1,$8,$9*
0 Add four rect primitives between the rounded corners*
20,1,$1+$1,$2,$3,$4,$5,0*
20,1,$1+$1,$4,$5,$6,$7,0*
20,1,$1+$1,$6,$7,$8,$9,0*
20,1,$1+$1,$8,$9,$2,$3,0*%
G04 Aperture macros list end*
%TA.AperFunction,ComponentPad*%
%ADD10C,2.200000*%
%TD*%
%TA.AperFunction,SMDPad,CuDef*%
%ADD11R,1.600000X0.850000*%
%TD*%
%TA.AperFunction,ComponentPad*%
%ADD12R,1.700000X1.700000*%
%TD*%
%TA.AperFunction,ComponentPad*%
%ADD13O,1.700000X1.700000*%
%TD*%
%TA.AperFunction,ComponentPad*%
%ADD14R,2.000000X2.000000*%
%TD*%
%TA.AperFunction,ComponentPad*%
%ADD15C,2.000000*%
%TD*%
%TA.AperFunction,ComponentPad*%
%ADD16R,3.000000X2.500000*%
%TD*%
%TA.AperFunction,SMDPad,CuDef*%
%ADD17RoundRect,0.152400X1.063600X0.609600X-1.063600X0.609600X-1.063600X-0.609600X1.063600X-0.609600X0*%
%TD*%
%TA.AperFunction,ComponentPad*%
%ADD18C,1.524000*%
%TD*%
%TA.AperFunction,SMDPad,CuDef*%
%ADD19RoundRect,0.152400X-1.063600X-0.609600X1.063600X-0.609600X1.063600X0.609600X-1.063600X0.609600X0*%
%TD*%
%TA.AperFunction,ComponentPad*%
%ADD20RoundRect,0.250000X-0.550000X0.550000X-0.550000X-0.550000X0.550000X-0.550000X0.550000X0.550000X0*%
%TD*%
%TA.AperFunction,ComponentPad*%
%ADD21C,1.600000*%
%TD*%
%TA.AperFunction,ComponentPad*%
%ADD22RoundRect,0.250000X-0.550000X-0.550000X0.550000X-0.550000X0.550000X0.550000X-0.550000X0.550000X0*%
%TD*%
%TA.AperFunction,ViaPad*%
%ADD23C,0.800000*%
%TD*%
%TA.AperFunction,Conductor*%
%ADD24C,0.250000*%
%TD*%
G04 APERTURE END LIST*
D10*
%TO.P,SW A3,1,1*%
%TO.N,SW A*%
X154622500Y-93936250D03*
%TO.P,SW A3,2,2*%
%TO.N,Net-(D11-A)*%
X148272500Y-96476250D03*
%TD*%
%TO.P,SW A2,1,1*%
%TO.N,SW A*%
X135572500Y-93936250D03*
%TO.P,SW A2,2,2*%
%TO.N,Net-(D10-A)*%
X129222500Y-96476250D03*
%TD*%
%TO.P,SW B1,1,1*%
%TO.N,SW B*%
X116522500Y-117316250D03*
%TO.P,SW B1,2,2*%
%TO.N,Net-(D13-A)*%
X110172500Y-119856250D03*
%TD*%
D11*
%TO.P,D7,1,DOUT*%
%TO.N,Net-(D7-DOUT)*%
X131282500Y-133427500D03*
%TO.P,D7,2,VSS*%
%TO.N,GND*%
X131282500Y-135177500D03*
%TO.P,D7,3,DIN*%
%TO.N,Net-(D6-DOUT)*%
X134782500Y-135177500D03*
%TO.P,D7,4,VDD*%
%TO.N,+5V*%
X134782500Y-133427500D03*
%TD*%
D10*
%TO.P,SW B2,1,1*%
%TO.N,SW B*%
X135572500Y-117316250D03*
%TO.P,SW B2,2,2*%
%TO.N,Net-(D14-A)*%
X129222500Y-119856250D03*
%TD*%
D11*
%TO.P,D1,1,DOUT*%
%TO.N,Net-(D1-DOUT)*%
X112232500Y-110168750D03*
%TO.P,D1,2,VSS*%
%TO.N,GND*%
X112232500Y-111918750D03*
%TO.P,D1,3,DIN*%
%TO.N,LEDs*%
X115732500Y-111918750D03*
%TO.P,D1,4,VDD*%
%TO.N,+5V*%
X115732500Y-110168750D03*
%TD*%
%TO.P,D3,1,DOUT*%
%TO.N,Net-(D3-DOUT)*%
X150332500Y-110047500D03*
%TO.P,D3,2,VSS*%
%TO.N,GND*%
X150332500Y-111797500D03*
%TO.P,D3,3,DIN*%
%TO.N,Net-(D2-DOUT)*%
X153832500Y-111797500D03*
%TO.P,D3,4,VDD*%
%TO.N,+5V*%
X153832500Y-110047500D03*
%TD*%
D12*
%TO.P,U2,1,GND*%
%TO.N,GND*%
X161615000Y-74886250D03*
D13*
%TO.P,U2,2,VCC*%
%TO.N,+5V*%
X161615000Y-77426250D03*
%TO.P,U2,3,SCL*%
%TO.N,SDA*%
X161615000Y-79966250D03*
%TO.P,U2,4,SDA*%
%TO.N,SCL*%
X161615000Y-82506250D03*
%TD*%
D11*
%TO.P,D4,1,DOUT*%
%TO.N,Net-(D4-DOUT)*%
X169382500Y-110047500D03*
%TO.P,D4,2,VSS*%
%TO.N,GND*%
X169382500Y-111797500D03*
%TO.P,D4,3,DIN*%
%TO.N,Net-(D3-DOUT)*%
X172882500Y-111797500D03*
%TO.P,D4,4,VDD*%
%TO.N,+5V*%
X172882500Y-110047500D03*
%TD*%
D14*
%TO.P,SW9,A,A*%
%TO.N,DIAL A*%
X166500000Y-76000000D03*
D15*
%TO.P,SW9,B,B*%
%TO.N,DIAL B*%
X166500000Y-81000000D03*
%TO.P,SW9,C,C*%
%TO.N,GND*%
X166500000Y-78500000D03*
D16*
%TO.P,SW9,MP*%
%TO.N,N/C*%
X174000000Y-72900000D03*
X174000000Y-84100000D03*
D15*
%TO.P,SW9,S1,S1*%
%TO.N,DIAL S1*%
X181000000Y-76000000D03*
%TO.P,SW9,S2,S2*%
%TO.N,GND*%
X181000000Y-81000000D03*
%TD*%
D11*
%TO.P,D5,1,DOUT*%
%TO.N,Net-(D5-DOUT)*%
X169382500Y-133427500D03*
%TO.P,D5,2,VSS*%
%TO.N,GND*%
X169382500Y-135177500D03*
%TO.P,D5,3,DIN*%
%TO.N,Net-(D4-DOUT)*%
X172882500Y-135177500D03*
%TO.P,D5,4,VDD*%
%TO.N,+5V*%
X172882500Y-133427500D03*
%TD*%
D10*
%TO.P,SW A1,1,1*%
%TO.N,SW A*%
X116522500Y-93936250D03*
%TO.P,SW A1,2,2*%
%TO.N,Net-(D9-A)*%
X110172500Y-96476250D03*
%TD*%
D11*
%TO.P,D8,1,DOUT*%
%TO.N,unconnected-(D8-DOUT-Pad1)*%
X112232500Y-133427500D03*
%TO.P,D8,2,VSS*%
%TO.N,GND*%
X112232500Y-135177500D03*
%TO.P,D8,3,DIN*%
%TO.N,Net-(D7-DOUT)*%
X115732500Y-135177500D03*
%TO.P,D8,4,VDD*%
%TO.N,+5V*%
X115732500Y-133427500D03*
%TD*%
D17*
%TO.P,U1,1,GPIO26/ADC0/A0*%
%TO.N,LEDs*%
X105845000Y-70961250D03*
D18*
X106680000Y-70961250D03*
D17*
%TO.P,U1,2,GPIO27/ADC1/A1*%
%TO.N,SW A*%
X105845000Y-73501250D03*
D18*
X106680000Y-73501250D03*
D17*
%TO.P,U1,3,GPIO28/ADC2/A2*%
%TO.N,SW B*%
X105845000Y-76041250D03*
D18*
X106680000Y-76041250D03*
D17*
%TO.P,U1,4,GPIO29/ADC3/A3*%
%TO.N,SW 1*%
X105845000Y-78581250D03*
D18*
X106680000Y-78581250D03*
D17*
%TO.P,U1,5,GPIO6/SDA*%
%TO.N,SDA*%
X105845000Y-81121250D03*
D18*
X106680000Y-81121250D03*
D17*
%TO.P,U1,6,GPIO7/SCL*%
%TO.N,SCL*%
X105845000Y-83661250D03*
D18*
X106680000Y-83661250D03*
D17*
%TO.P,U1,7,GPIO0/TX*%
%TO.N,SW 2*%
X105845000Y-86201250D03*
D18*
X106680000Y-86201250D03*
%TO.P,U1,8,GPIO1/RX*%
%TO.N,DIAL B*%
X121920000Y-86201250D03*
D19*
X122755000Y-86201250D03*
D18*
%TO.P,U1,9,GPIO2/SCK*%
%TO.N,DIAL A*%
X121920000Y-83661250D03*
D19*
X122755000Y-83661250D03*
D18*
%TO.P,U1,10,GPIO4/MISO*%
%TO.N,SW 4*%
X121920000Y-81121250D03*
D19*
X122755000Y-81121250D03*
D18*
%TO.P,U1,11,GPIO3/MOSI*%
%TO.N,SW 3*%
X121920000Y-78581250D03*
D19*
X122755000Y-78581250D03*
D18*
%TO.P,U1,12,3V3*%
%TO.N,unconnected-(U1-3V3-Pad12)*%
X121920000Y-76041250D03*
D19*
%TO.N,unconnected-(U1-3V3-Pad12)_1*%
X122755000Y-76041250D03*
D18*
%TO.P,U1,13,GND*%
%TO.N,GND*%
X121920000Y-73501250D03*
D19*
X122755000Y-73501250D03*
D18*
%TO.P,U1,14,VBUS*%
%TO.N,+5V*%
X121920000Y-70961250D03*
D19*
X122755000Y-70961250D03*
%TD*%
D10*
%TO.P,SW A4,1,1*%
%TO.N,SW A*%
X173672500Y-93936250D03*
%TO.P,SW A4,2,2*%
%TO.N,Net-(D12-A)*%
X167322500Y-96476250D03*
%TD*%
%TO.P,SW B3,1,1*%
%TO.N,SW B*%
X154622500Y-117316250D03*
%TO.P,SW B3,2,2*%
%TO.N,Net-(D15-A)*%
X148272500Y-119856250D03*
%TD*%
D11*
%TO.P,D6,1,DOUT*%
%TO.N,Net-(D6-DOUT)*%
X150332500Y-133427500D03*
%TO.P,D6,2,VSS*%
%TO.N,GND*%
X150332500Y-135177500D03*
%TO.P,D6,3,DIN*%
%TO.N,Net-(D5-DOUT)*%
X153832500Y-135177500D03*
%TO.P,D6,4,VDD*%
%TO.N,+5V*%
X153832500Y-133427500D03*
%TD*%
%TO.P,D2,1,DOUT*%
%TO.N,Net-(D2-DOUT)*%
X131282500Y-110047500D03*
%TO.P,D2,2,VSS*%
%TO.N,GND*%
X131282500Y-111797500D03*
%TO.P,D2,3,DIN*%
%TO.N,Net-(D1-DOUT)*%
X134782500Y-111797500D03*
%TO.P,D2,4,VDD*%
%TO.N,+5V*%
X134782500Y-110047500D03*
%TD*%
D10*
%TO.P,SW B4,1,1*%
%TO.N,SW B*%
X173672500Y-117316250D03*
%TO.P,SW B4,2,2*%
%TO.N,Net-(D16-A)*%
X167322500Y-119856250D03*
%TD*%
D20*
%TO.P,D15,1,K*%
%TO.N,SW 3*%
X142875000Y-118586250D03*
D21*
%TO.P,D15,2,A*%
%TO.N,Net-(D15-A)*%
X142875000Y-126206250D03*
%TD*%
D20*
%TO.P,D9,1,K*%
%TO.N,SW 1*%
X104775000Y-95206250D03*
D21*
%TO.P,D9,2,A*%
%TO.N,Net-(D9-A)*%
X104775000Y-102826250D03*
%TD*%
D20*
%TO.P,D11,1,K*%
%TO.N,SW 3*%
X142875000Y-95206250D03*
D21*
%TO.P,D11,2,A*%
%TO.N,Net-(D11-A)*%
X142875000Y-102826250D03*
%TD*%
D20*
%TO.P,D12,1,K*%
%TO.N,SW 4*%
X161925000Y-95206250D03*
D21*
%TO.P,D12,2,A*%
%TO.N,Net-(D12-A)*%
X161925000Y-102826250D03*
%TD*%
D20*
%TO.P,D16,1,K*%
%TO.N,SW 4*%
X161925000Y-118586250D03*
D21*
%TO.P,D16,2,A*%
%TO.N,Net-(D16-A)*%
X161925000Y-126206250D03*
%TD*%
D20*
%TO.P,D14,1,K*%
%TO.N,SW 2*%
X123825000Y-118586250D03*
D21*
%TO.P,D14,2,A*%
%TO.N,Net-(D14-A)*%
X123825000Y-126206250D03*
%TD*%
D20*
%TO.P,D10,1,K*%
%TO.N,SW 2*%
X123825000Y-95206250D03*
D21*
%TO.P,D10,2,A*%
%TO.N,Net-(D10-A)*%
X123825000Y-102826250D03*
%TD*%
D22*
%TO.P,D17,1,K*%
%TO.N,SW 1*%
X140493750Y-88106250D03*
D21*
%TO.P,D17,2,A*%
%TO.N,DIAL S1*%
X148113750Y-88106250D03*
%TD*%
D20*
%TO.P,D13,1,K*%
%TO.N,SW 1*%
X104775000Y-118586250D03*
D21*
%TO.P,D13,2,A*%
%TO.N,Net-(D13-A)*%
X104775000Y-126206250D03*
%TD*%
D23*
%TO.N,+5V*%
X156500000Y-85000000D03*
X139500000Y-119500000D03*
X157500000Y-92500000D03*
X153500000Y-74500000D03*
X138000000Y-111000000D03*
X123000000Y-110000000D03*
X171000000Y-110275000D03*
X142000000Y-110500000D03*
X158000000Y-110021500D03*
%TO.N,LEDs*%
X118500000Y-111944750D03*
%TO.N,GND*%
X176225000Y-112000000D03*
X166500000Y-112000000D03*
%TO.N,SW 1*%
X112500000Y-94000000D03*
X107000000Y-100500000D03*
%TO.N,SW 2*%
X121500000Y-101500000D03*
%TO.N,SW 3*%
X141000000Y-106500000D03*
X120000000Y-89500000D03*
X120000000Y-84000000D03*
%TO.N,SW 4*%
X151500000Y-89500000D03*
X152500000Y-81500000D03*
X163500000Y-118500000D03*
X153500000Y-83500000D03*
%TO.N,DIAL A*%
X156000000Y-72776250D03*
%TO.N,SDA*%
X113500000Y-78000000D03*
X111500000Y-80000000D03*
%TO.N,SCL*%
X114000000Y-82500000D03*
X115500000Y-80500000D03*
%TD*%
D24*
%TO.N,Net-(D1-DOUT)*%
X112232500Y-110168750D02*
X113063750Y-111000000D01*
X113063750Y-111000000D02*
X133985000Y-111000000D01*
X133985000Y-111000000D02*
X134782500Y-111797500D01*
%TO.N,+5V*%
X122831250Y-110168750D02*
X115732500Y-110168750D01*
X154583500Y-132676500D02*
X172131500Y-132676500D01*
X153081500Y-132676500D02*
X153832500Y-133427500D01*
X156500000Y-85000000D02*
X156500000Y-91500000D01*
X134031500Y-132676500D02*
X134782500Y-133427500D01*
X138500000Y-132676500D02*
X153081500Y-132676500D01*
X138000000Y-110047500D02*
X138000000Y-111000000D01*
X153832500Y-133427500D02*
X154583500Y-132676500D01*
X157974000Y-110047500D02*
X153832500Y-110047500D01*
X172882500Y-110047500D02*
X171227500Y-110047500D01*
X138500000Y-132676500D02*
X139500000Y-131676500D01*
X115732500Y-133427500D02*
X116483500Y-132676500D01*
X141547500Y-110047500D02*
X138000000Y-110047500D01*
X160490000Y-77426250D02*
X161615000Y-77426250D01*
X158000000Y-110021500D02*
X157974000Y-110047500D01*
X139500000Y-131676500D02*
X139500000Y-119500000D01*
X142000000Y-110500000D02*
X141547500Y-110047500D01*
X171227500Y-110047500D02*
X171000000Y-110275000D01*
X138000000Y-110047500D02*
X134782500Y-110047500D01*
X135533500Y-132676500D02*
X138500000Y-132676500D01*
X134782500Y-133427500D02*
X135533500Y-132676500D01*
X156500000Y-91500000D02*
X157500000Y-92500000D01*
X160490000Y-77426250D02*
X157563750Y-74500000D01*
X157563750Y-74500000D02*
X153500000Y-74500000D01*
X172131500Y-132676500D02*
X172882500Y-133427500D01*
X123000000Y-110000000D02*
X122831250Y-110168750D01*
X116483500Y-132676500D02*
X134031500Y-132676500D01*
%TO.N,LEDs*%
X118474000Y-111918750D02*
X118500000Y-111944750D01*
X115732500Y-111918750D02*
X118474000Y-111918750D01*
%TO.N,GND*%
X121920000Y-73501250D02*
X159105000Y-73501250D01*
X151083500Y-135928500D02*
X168631500Y-135928500D01*
X112983500Y-135928500D02*
X112232500Y-135177500D01*
X159105000Y-73501250D02*
X160490000Y-74886250D01*
X161565625Y-74935625D02*
X161615000Y-74886250D01*
X165951500Y-112548500D02*
X151083500Y-112548500D01*
X151083500Y-112548500D02*
X150332500Y-111797500D01*
X166500000Y-112000000D02*
X165951500Y-112548500D01*
X163934375Y-75934375D02*
X166500000Y-78500000D01*
X170133500Y-135928500D02*
X169382500Y-135177500D01*
X160517500Y-74886250D02*
X161565625Y-75934375D01*
X112983500Y-112669750D02*
X112232500Y-111918750D01*
X132033500Y-135928500D02*
X149581500Y-135928500D01*
X131282500Y-111797500D02*
X130410250Y-112669750D01*
X166500000Y-112000000D02*
X166702500Y-111797500D01*
X166500000Y-78500000D02*
X168962500Y-80962500D01*
X131282500Y-135177500D02*
X132033500Y-135928500D01*
X130410250Y-112669750D02*
X112983500Y-112669750D01*
X150332500Y-135177500D02*
X151083500Y-135928500D01*
X132033500Y-112548500D02*
X131282500Y-111797500D01*
X149581500Y-135928500D02*
X150332500Y-135177500D01*
X169000000Y-80962500D02*
X178593750Y-80962500D01*
X178593750Y-112000000D02*
X176225000Y-112000000D01*
X161565625Y-75934375D02*
X163934375Y-75934375D01*
X178593750Y-131343250D02*
X174008500Y-135928500D01*
X130531500Y-135928500D02*
X112983500Y-135928500D01*
X178593750Y-80962500D02*
X178593750Y-112000000D01*
X166702500Y-111797500D02*
X169382500Y-111797500D01*
X149581500Y-112548500D02*
X132033500Y-112548500D01*
X161565625Y-75934375D02*
X161565625Y-74935625D01*
X178593750Y-112000000D02*
X178593750Y-131343250D01*
X174008500Y-135928500D02*
X170133500Y-135928500D01*
X168631500Y-135928500D02*
X169382500Y-135177500D01*
X178631250Y-81000000D02*
X181000000Y-81000000D01*
X160490000Y-74886250D02*
X160517500Y-74886250D01*
X178593750Y-80962500D02*
X178631250Y-81000000D01*
X150332500Y-111797500D02*
X149581500Y-112548500D01*
X131282500Y-135177500D02*
X130531500Y-135928500D01*
%TO.N,Net-(D2-DOUT)*%
X149408000Y-111000000D02*
X153035000Y-111000000D01*
X132033500Y-109296500D02*
X147704500Y-109296500D01*
X131282500Y-110047500D02*
X132033500Y-109296500D01*
X147704500Y-109296500D02*
X149408000Y-111000000D01*
X153035000Y-111000000D02*
X153832500Y-111797500D01*
%TO.N,Net-(D3-DOUT)*%
X166754500Y-109296500D02*
X168458000Y-111000000D01*
X168458000Y-111000000D02*
X172085000Y-111000000D01*
X151083500Y-109296500D02*
X166754500Y-109296500D01*
X150332500Y-110047500D02*
X151083500Y-109296500D01*
X172085000Y-111000000D02*
X172882500Y-111797500D01*
%TO.N,Net-(D4-DOUT)*%
X174008500Y-122866424D02*
X174008500Y-134051500D01*
X174008500Y-109296500D02*
X175500000Y-110788000D01*
X170133500Y-109296500D02*
X174008500Y-109296500D01*
X175500000Y-121374924D02*
X174008500Y-122866424D01*
X169382500Y-110047500D02*
X170133500Y-109296500D01*
X174008500Y-134051500D02*
X172882500Y-135177500D01*
X175500000Y-110788000D02*
X175500000Y-121374924D01*
%TO.N,Net-(D5-DOUT)*%
X169382500Y-133427500D02*
X155582500Y-133427500D01*
X155582500Y-133427500D02*
X153832500Y-135177500D01*
%TO.N,Net-(D6-DOUT)*%
X150332500Y-133427500D02*
X136532500Y-133427500D01*
X136532500Y-133427500D02*
X134782500Y-135177500D01*
%TO.N,Net-(D7-DOUT)*%
X117482500Y-133427500D02*
X115732500Y-135177500D01*
X131282500Y-133427500D02*
X117482500Y-133427500D01*
%TO.N,Net-(D9-A)*%
X107173750Y-102826250D02*
X104775000Y-102826250D01*
X110172500Y-99827500D02*
X107173750Y-102826250D01*
X110172500Y-96476250D02*
X110172500Y-99827500D01*
%TO.N,SW 1*%
X104775000Y-95206250D02*
X107000000Y-97431250D01*
X104775000Y-95206250D02*
X105981250Y-94000000D01*
X107000000Y-97431250D02*
X107000000Y-100500000D01*
X105981250Y-94000000D02*
X112500000Y-94000000D01*
%TO.N,Net-(D10-A)*%
X129222500Y-99480076D02*
X125876326Y-102826250D01*
X125876326Y-102826250D02*
X123825000Y-102826250D01*
X129222500Y-96476250D02*
X129222500Y-99480076D01*
%TO.N,SW 2*%
X123825000Y-95206250D02*
X121515625Y-97515625D01*
X121515625Y-97515625D02*
X117994375Y-97515625D01*
X121515625Y-97515625D02*
X121500000Y-97531250D01*
X117994375Y-97515625D02*
X106680000Y-86201250D01*
X121500000Y-97531250D02*
X121500000Y-101500000D01*
%TO.N,Net-(D11-A)*%
X144926326Y-102826250D02*
X142875000Y-102826250D01*
X148272500Y-99480076D02*
X144926326Y-102826250D01*
X148272500Y-96476250D02*
X148272500Y-99480076D01*
%TO.N,SW 3*%
X141206250Y-95206250D02*
X141000000Y-95000000D01*
X120000000Y-89500000D02*
X120000000Y-84000000D01*
X141000000Y-95000000D02*
X141000000Y-106500000D01*
X142875000Y-95206250D02*
X141206250Y-95206250D01*
%TO.N,SW 4*%
X161925000Y-118586250D02*
X163413750Y-118586250D01*
X152121250Y-81121250D02*
X122755000Y-81121250D01*
X122755000Y-81121250D02*
X122776000Y-81142250D01*
X151500000Y-85500000D02*
X153500000Y-83500000D01*
X162604331Y-94526919D02*
X161925000Y-95206250D01*
X151500000Y-89500000D02*
X151500000Y-85500000D01*
X163413750Y-118586250D02*
X163500000Y-118500000D01*
X152500000Y-81500000D02*
X152121250Y-81121250D01*
%TO.N,Net-(D12-A)*%
X167322500Y-99480076D02*
X163976326Y-102826250D01*
X163976326Y-102826250D02*
X161925000Y-102826250D01*
X167322500Y-96476250D02*
X167322500Y-99480076D01*
%TO.N,Net-(D13-A)*%
X106826326Y-126206250D02*
X104775000Y-126206250D01*
X110172500Y-119856250D02*
X110172500Y-122860076D01*
X110172500Y-122860076D02*
X106826326Y-126206250D01*
%TO.N,Net-(D14-A)*%
X129222500Y-119856250D02*
X129222500Y-122860076D01*
X129222500Y-122860076D02*
X125876326Y-126206250D01*
X125876326Y-126206250D02*
X123825000Y-126206250D01*
%TO.N,Net-(D15-A)*%
X145293750Y-126206250D02*
X142875000Y-126206250D01*
X148272500Y-123227500D02*
X145293750Y-126206250D01*
X148272500Y-119856250D02*
X148272500Y-123227500D01*
%TO.N,Net-(D16-A)*%
X164293750Y-126206250D02*
X161925000Y-126206250D01*
X167322500Y-123177500D02*
X164293750Y-126206250D01*
X167322500Y-119856250D02*
X167322500Y-123177500D01*
%TO.N,SW A*%
X116522500Y-93936250D02*
X135572500Y-93936250D01*
X154622500Y-93936250D02*
X173672500Y-93936250D01*
X116522500Y-83343750D02*
X106680000Y-73501250D01*
X135572500Y-93936250D02*
X154622500Y-93936250D01*
X116522500Y-93936250D02*
X116522500Y-83343750D01*
%TO.N,SW B*%
X103649000Y-105998384D02*
X103649000Y-78237250D01*
X116522500Y-117316250D02*
X114966866Y-117316250D01*
X154622500Y-117316250D02*
X173672500Y-117316250D01*
X114966866Y-117316250D02*
X103649000Y-105998384D01*
X135572500Y-117316250D02*
X154622500Y-117316250D01*
X103649000Y-78237250D02*
X105845000Y-76041250D01*
X116522500Y-117316250D02*
X135572500Y-117316250D01*
%TO.N,DIAL A*%
X156000000Y-72776250D02*
X163276250Y-72776250D01*
X163276250Y-72776250D02*
X166500000Y-76000000D01*
%TO.N,SDA*%
X160297750Y-79774000D02*
X115274000Y-79774000D01*
X115274000Y-79774000D02*
X113500000Y-78000000D01*
X111500000Y-80000000D02*
X110378750Y-81121250D01*
X160490000Y-79966250D02*
X160297750Y-79774000D01*
X160490000Y-79966250D02*
X161615000Y-79966250D01*
X110378750Y-81121250D02*
X106680000Y-81121250D01*
%TO.N,SCL*%
X115500000Y-80500000D02*
X117506250Y-82506250D01*
X114000000Y-82500000D02*
X113500000Y-82500000D01*
X117506250Y-82506250D02*
X161615000Y-82506250D01*
X112338750Y-83661250D02*
X106680000Y-83661250D01*
X113500000Y-82500000D02*
X112338750Y-83661250D01*
%TD*%
M02*
